<svg width="156" height="154" viewBox="0 0 156 154" fill="none" xmlns="http://www.w3.org/2000/svg">
<rect width="156" height="154" rx="77" fill="url(#paint0_linear_4_106)"/>
<path d="M40.1468 39.5418C42.93 30.5318 55.4943 30.0285 58.9892 38.7871L70.1997 66.8817C73.1081 74.1704 82.8951 75.422 87.544 69.0996L96.0312 57.5572C100.525 51.4452 109.922 52.3676 113.142 59.2368L129.323 93.7557C132.431 100.387 127.592 108 120.268 108H32.5552C25.8226 108 21.0136 101.481 23.0007 95.0486L40.1468 39.5418Z" fill="white"/>
<g filter="url(#filter0_d_4_106)">
<path d="M77.6173 91.4615L65.1331 80.7662L77.6173 16V91.4615Z" fill="#227585"/>
<path d="M65.1331 80.6813L43.9101 96.8516L77.6173 16L65.1331 80.6813Z" fill="#2D96AA"/>
<path d="M90.1015 80.6813L111.325 96.8516L77.6173 16L90.1015 80.6813Z" fill="#227585"/>
<path d="M77.6173 91.4615L90.1015 80.7662L77.6173 16V91.4615Z" fill="#2D96AA"/>
</g>
<g filter="url(#filter1_d_4_106)">
<rect x="62" y="91" width="6" height="26" rx="3" fill="black"/>
</g>
<g filter="url(#filter2_d_4_106)">
<rect x="74" y="100" width="7" height="25" rx="3.5" fill="black"/>
</g>
<g filter="url(#filter3_d_4_106)">
<rect x="87" y="91" width="6" height="26" rx="3" fill="black"/>
</g>
<defs>
<filter id="filter0_d_4_106" x="39.91" y="16" width="75.4145" height="94.8517" filterUnits="userSpaceOnUse" color-interpolation-filters="sRGB">
<feFlood flood-opacity="0" result="BackgroundImageFix"/>
<feColorMatrix in="SourceAlpha" type="matrix" values="0 0 0 0 0 0 0 0 0 0 0 0 0 0 0 0 0 0 127 0" result="hardAlpha"/>
<feOffset dy="10"/>
<feGaussianBlur stdDeviation="2"/>
<feComposite in2="hardAlpha" operator="out"/>
<feColorMatrix type="matrix" values="0 0 0 0 0 0 0 0 0 0 0 0 0 0 0 0 0 0 0.25 0"/>
<feBlend mode="normal" in2="BackgroundImageFix" result="effect1_dropShadow_4_106"/>
<feBlend mode="normal" in="SourceGraphic" in2="effect1_dropShadow_4_106" result="shape"/>
</filter>
<filter id="filter1_d_4_106" x="58" y="91" width="14" height="34" filterUnits="userSpaceOnUse" color-interpolation-filters="sRGB">
<feFlood flood-opacity="0" result="BackgroundImageFix"/>
<feColorMatrix in="SourceAlpha" type="matrix" values="0 0 0 0 0 0 0 0 0 0 0 0 0 0 0 0 0 0 127 0" result="hardAlpha"/>
<feOffset dy="4"/>
<feGaussianBlur stdDeviation="2"/>
<feComposite in2="hardAlpha" operator="out"/>
<feColorMatrix type="matrix" values="0 0 0 0 0 0 0 0 0 0 0 0 0 0 0 0 0 0 0.25 0"/>
<feBlend mode="normal" in2="BackgroundImageFix" result="effect1_dropShadow_4_106"/>
<feBlend mode="normal" in="SourceGraphic" in2="effect1_dropShadow_4_106" result="shape"/>
</filter>
<filter id="filter2_d_4_106" x="70" y="100" width="15" height="33" filterUnits="userSpaceOnUse" color-interpolation-filters="sRGB">
<feFlood flood-opacity="0" result="BackgroundImageFix"/>
<feColorMatrix in="SourceAlpha" type="matrix" values="0 0 0 0 0 0 0 0 0 0 0 0 0 0 0 0 0 0 127 0" result="hardAlpha"/>
<feOffset dy="4"/>
<feGaussianBlur stdDeviation="2"/>
<feComposite in2="hardAlpha" operator="out"/>
<feColorMatrix type="matrix" values="0 0 0 0 0 0 0 0 0 0 0 0 0 0 0 0 0 0 0.25 0"/>
<feBlend mode="normal" in2="BackgroundImageFix" result="effect1_dropShadow_4_106"/>
<feBlend mode="normal" in="SourceGraphic" in2="effect1_dropShadow_4_106" result="shape"/>
</filter>
<filter id="filter3_d_4_106" x="83" y="91" width="14" height="34" filterUnits="userSpaceOnUse" color-interpolation-filters="sRGB">
<feFlood flood-opacity="0" result="BackgroundImageFix"/>
<feColorMatrix in="SourceAlpha" type="matrix" values="0 0 0 0 0 0 0 0 0 0 0 0 0 0 0 0 0 0 127 0" result="hardAlpha"/>
<feOffset dy="4"/>
<feGaussianBlur stdDeviation="2"/>
<feComposite in2="hardAlpha" operator="out"/>
<feColorMatrix type="matrix" values="0 0 0 0 0 0 0 0 0 0 0 0 0 0 0 0 0 0 0.25 0"/>
<feBlend mode="normal" in2="BackgroundImageFix" result="effect1_dropShadow_4_106"/>
<feBlend mode="normal" in="SourceGraphic" in2="effect1_dropShadow_4_106" result="shape"/>
</filter>
<linearGradient id="paint0_linear_4_106" x1="78" y1="0" x2="78" y2="154" gradientUnits="userSpaceOnUse">
<stop stop-color="#D6D200"/>
<stop offset="1" stop-color="#AE0000"/>
</linearGradient>
</defs>
</svg>
