<svg width="58" height="58" viewBox="0 0 58 58" fill="none" xmlns="http://www.w3.org/2000/svg">
<path d="M29.75 0C39.0008 0 46.5 7.49923 46.5 16.75V36.2002C46.5 37.717 46.8139 39.2178 47.4219 40.6074C49.0145 44.2473 52.4471 46.7443 56.4004 47.1396L57.5 47.25H38.8652C39.077 47.7523 39.1943 48.3044 39.1943 48.8838V50.9238C39.1942 52.2621 38.7069 53.5546 37.8242 54.5605C37.2817 55.1787 36.6075 55.6682 35.8516 55.9922L34.4756 56.582C31.6039 57.8128 28.3668 57.8879 25.4414 56.791L23.6182 56.1064L23.2285 55.9443C22.3336 55.5354 21.5496 54.9133 20.9473 54.1299L20.9043 54.0742C20.1197 53.0535 19.6944 51.8021 19.6943 50.5146V49.3838C19.6943 48.6157 19.878 47.8906 20.2041 47.25H0L2.72363 47.0234C6.62131 46.6985 10.0673 44.3645 11.8164 40.8662C12.5458 39.4074 12.9477 37.8084 12.9951 36.1807L13 35.8545V16.75C13 7.49923 20.4992 0 29.75 0ZM24.4043 47.6738C23.4599 47.6738 22.6943 48.4394 22.6943 49.3838V50.5146C22.6944 51.1408 22.9016 51.7497 23.2832 52.2461L23.3262 52.3018C23.673 52.7528 24.1391 53.0981 24.6719 53.2979L26.4951 53.9814C28.6967 54.8069 31.1328 54.7514 33.2939 53.8252L34.6699 53.2344C35.0145 53.0866 35.322 52.8638 35.5693 52.582C35.9717 52.1234 36.1942 51.5339 36.1943 50.9238V48.8838C36.1943 48.2157 35.6524 47.6741 34.9844 47.6738H24.4043ZM29.75 3C22.1561 3 16 9.15609 16 16.75V35.8545C16 38.0601 15.4864 40.2353 14.5 42.208C14.1393 42.9295 13.7208 43.6113 13.2529 44.25H46.0469C45.5144 43.4927 45.0522 42.6768 44.6729 41.8096C43.899 40.0408 43.5 38.1308 43.5 36.2002V16.75C43.5 9.15609 37.3439 3 29.75 3Z" fill="black"/>
</svg>
